# xmcd
#
# Track frame offsets: 
#        150
#        14816
#        32874
#        50800
#        66556
#        87185
#        103711
#        119262
#        142192
#        158544
#        172864
#
# Disc length: 2633 seconds
#
# Revision: 2
# Processed by: cddbd v1.5.2PL0 Copyright (c) Steve Scherf et al.
# Submitted via: ExactAudioCopy v1.3
#
DISCID=9b0a470b
DTITLE=Mandisa - Freedom
DYEAR=2009
DGENRE=Gospel
TTITLE0=My Deliverer
TTITLE1=How Much
TTITLE2=He is with You
TTITLE3=The Definition of Me
TTITLE4=Not Guilty
TTITLE5=Leave it in the Valley
TTITLE6=Victorious
TTITLE7=Broken Halleljuah
TTITLE8=Freedom Song
TTITLE9=Dance, Dance, Dance
TTITLE10=You Wouldn't Cry (Andrew's Song)
EXTD=YEAR: 2009
EXTT0=
EXTT1=
EXTT2=
EXTT3=
EXTT4=
EXTT5=
EXTT6=
EXTT7=
EXTT8=
EXTT9=
EXTT10=
PLAYORDER=
